<svg xmlns="http://www.w3.org/2000/svg" data-name="Layer 1" width="900.67538" height="600.26155" viewBox="0 0 900.67538 600.26155" xmlns:xlink="http://www.w3.org/1999/xlink">
<svg xmlns="http://www.w3.org/2000/svg" viewBox="-11.5 -10.23174 23 17.86348">
  <title>React Logo</title>
  <circle cx="0" cy="0" r="1.05" fill="#61dafb"/>
  <g stroke="#61dafb" stroke-width="0.7" fill="none">
    <ellipse rx="9" ry="3.2"/>
    <ellipse rx="9" ry="3.2" transform="rotate(60)"/>
    <ellipse rx="9" ry="3.2" transform="rotate(120)"/>
  </g>
</svg>
<path xmlns="http://www.w3.org/2000/svg" d="M604.12763,220.37264c-71.89185.50782-130.75611,58.92987-131.77735,130.81635-.00946.66369-.01381,5.33048-.01324,11.43422a33.74778,33.74778,0,0,0,33.74387,33.746h.00007a33.76855,33.76855,0,0,0,33.76114-33.79775c-.00343-4.15211-.00551-7.02584-.00551-7.20227a64.00037,64.00037,0,1,1,98.52027,53.8794l.01171.01422s-48.02832,30.91956-62.67089,73.33545l.01245.003a94.00389,94.00389,0,0,0-3.87354,26.76794c0,3.72538.21916,36.32138.64261,62.77767a34.78649,34.78649,0,0,0,34.79009,34.22233h.00007a34.79588,34.79588,0,0,0,34.79384-35.01061c-.14706-24.22912-.22661-52.44168-.22661-54.48939,0-26.04473,25.12525-51.99475,45.76367-68.91741,23.76587-19.48694,40.86792-46.04291,47.73706-75.99909a86.7618,86.7618,0,0,0,2.49927-18.8335A132.75,132.75,0,0,0,604.12763,220.37264Z" transform="translate(-50.66231 -152.36922)" fill="#8435de"/><path xmlns="http://www.w3.org/2000/svg" d="M515.60883,380.40755h0a33.748,33.748,0,0,1-33.74414-33.746c-.00049-6.10376.0039-10.77051.01318-11.4342a131.50724,131.50724,0,0,1,15.35889-59.90875,131.80321,131.80321,0,0,0-25.35889,75.90875c-.00928.66369-.01367,5.33044-.01318,11.4342a33.748,33.748,0,0,0,33.74414,33.746h0A33.77281,33.77281,0,0,0,538.09662,371.817,33.62247,33.62247,0,0,1,515.60883,380.40755Z" transform="translate(-50.66231 -152.36922)" fill="#3f3d56"/><path xmlns="http://www.w3.org/2000/svg" d="M606.415,291.47848a64.00385,64.00385,0,0,1,55.65918,89.413,63.9972,63.9972,0,1,0-107.42578-66.98523A63.87073,63.87073,0,0,1,606.415,291.47848Z" transform="translate(-50.66231 -152.36922)" fill="#3f3d56"/><path xmlns="http://www.w3.org/2000/svg" d="M616.79682,590.40755h0a34.78682,34.78682,0,0,1-34.79-34.22235c-.42334-26.45629-.64258-59.0523-.64258-62.77765a94.00389,94.00389,0,0,1,3.87354-26.76794l-.01221-.003a95.069,95.069,0,0,1,5.49414-12.70087,110.04745,110.04745,0,0,0-15.49414,28.70087l.01221.003a94.00389,94.00389,0,0,0-3.87354,26.76794c0,3.72535.21924,36.32136.64258,62.77765a34.78682,34.78682,0,0,0,34.79,34.22235h0a34.80287,34.80287,0,0,0,33.40185-25.04846A34.66005,34.66005,0,0,1,616.79682,590.40755Z" transform="translate(-50.66231 -152.36922)" fill="#3f3d56"/><circle xmlns="http://www.w3.org/2000/svg" cx="560.39281" cy="548" r="46" fill="#8435de"/><path xmlns="http://www.w3.org/2000/svg" d="M598.92043,735.14922a45.99375,45.99375,0,0,1-17.07033-71.4888,45.99715,45.99715,0,1,0,62.56892,66.464A45.96919,45.96919,0,0,1,598.92043,735.14922Z" transform="translate(-50.66231 -152.36922)" fill="#3f3d56"/></svg>