<svg style="object-fit:cover" id="my-svg" version="1" baseProfile="full" width="100%" height="100%" viewBox="0 0 1536 754" xmlns="http://www.w3.org/2000/svg"><rect width="1536" height="754" fill="#3d0c7d"></rect><defs><linearGradient id="linear-gradient" x1="0" x2="1" y1="0" y2="1"><stop offset="0%" stop-color="#c81d1170"></stop><stop offset="100%" stop-color="#1c39bb70"></stop></linearGradient></defs><path transform="scale(1, 1)" d="M 0,754 V 0,527 C 241,575 482,623 738,623 C 994,623 1265,575 1536,527 C 1536,527 1536,754 1536,754 Z" stroke="none" stroke-width="0" fill="url(#linear-gradient)" class="transition-all duration-300 ease-in-out delay-150" style="transform-origin: center center;"></path><defs><linearGradient id="linear-gradient" x1="0" x2="1" y1="0" y2="1"><stop offset="0%" stop-color="#c81d1180"></stop><stop offset="100%" stop-color="#1c39bb80"></stop></linearGradient></defs><path transform="scale(1, 1)" d="M 0,754 V 0,791 C 245.5,724 491,657 747,657 C 1003,657 1269.5,724 1536,791 C 1536,791 1536,754 1536,754 Z" stroke="none" stroke-width="0" fill="url(#linear-gradient)" class="transition-all duration-300 ease-in-out delay-150" style="transform-origin: center center;"></path><defs><linearGradient id="linear-gradient" x1="0" x2="1" y1="0" y2="1"><stop offset="0%" stop-color="#c81d1190"></stop><stop offset="100%" stop-color="#1c39bb90"></stop></linearGradient></defs><path transform="scale(1, 1)" d="M 0,754 V 0,1187 C 275,1112 550,1037 806,1037 C 1062,1037 1299,1112 1536,1187 C 1536,1187 1536,754 1536,754 Z" stroke="none" stroke-width="0" fill="url(#linear-gradient)" class="transition-all duration-300 ease-in-out delay-150" style="transform-origin: center center;"></path><defs><linearGradient id="linear-gradient" x1="0" x2="1" y1="0" y2="1"><stop offset="0%" stop-color="#c81d11ff"></stop><stop offset="100%" stop-color="#1c39bbff"></stop></linearGradient></defs><path transform="scale(1, 1)" d="M 0,754 V 0,1781 C 276.5,1805 553,1829 809,1829 C 1065,1829 1300.5,1805 1536,1781 C 1536,1781 1536,754 1536,754 Z" stroke="none" stroke-width="0" fill="url(#linear-gradient)" class="transition-all duration-300 ease-in-out delay-150" style="transform-origin: center center;"></path></svg>